<?xml version="1.0" encoding="UTF-8"?>
<svg width="254px" height="159px" viewBox="0 0 254 159" version="1.1" xmlns="http://www.w3.org/2000/svg" xmlns:xlink="http://www.w3.org/1999/xlink">
    <!-- Generator: Sketch 47.1 (45422) - http://www.bohemiancoding.com/sketch -->
    <title>Squiggle</title>
    <desc>Created with Sketch.</desc>
    <defs></defs>
    <g id="Page-1" stroke="none" stroke-width="1" fill="none" fill-rule="evenodd">
        <g id="tablet" transform="translate(-400.000000, -1518.000000)" stroke="#443D3D">
            <g id="Group-4" transform="translate(401.000000, 1519.000000)">
                <g id="Squiggle">
                    <path d="M115.383616,39.9545566 C83.0288029,40.6331923 50.5037,38.6000457 18.3191761,41.9904635 C11.5574279,42.7027671 -3.04132737,46.2740596 0.563942197,52.0500182 C22.2049715,86.7208484 73.4437753,103.612913 108.120622,116.59914 C127.924149,124.015417 146.995389,68.0153093 142.815359,52.8598817 C138.929606,38.7714057 97.8396275,41.9360774 90.5899008,42.5641169 C89.5921326,42.6505529 88.0092687,44.6741723 88.9285048,45.0724441 C106.200243,52.5556643 124.592722,57.2462578 141.846212,64.7716242 C144.215838,65.8051722 136.638041,65.221983 134.09303,64.7716242 C125.062158,63.1735432 116.292777,60.2820124 107.267473,58.6526555 C99.1252162,57.182717 90.8766527,56.3605235 82.6496255,55.4844394 C80.9479208,55.3032274 78.8178783,54.371813 77.5157623,55.4844394 C74.899783,57.7197298 77.3216885,63.756192 82.0546661,71.0593146 C90.2503489,83.7054922 111.942289,117.873556 131.514873,118.286355 C171.212446,119.123605 210.94684,119.524614 250.633971,118.286355 C251.941492,118.24556 252.25856,115.762769 251.80518,114.533238 C251.057092,112.50448 249.178468,111.036055 247.47208,109.711551 C243.19595,106.392404 238.663455,103.387123 233.971366,100.690571 C207.389993,85.4142024 180.901946,69.9307281 153.689271,55.8143838 C144.184173,50.8836952 134.020622,47.3202539 123.971237,43.6289374 C118.84556,41.7461855 113.591681,40.1197772 108.225395,39.1146982 C98.0679272,37.2122546 87.7985162,35.8719411 77.5082785,34.926654 C55.2409228,32.8811186 31.0513587,21.0960827 10.59593,30.1462096 C-0.596876387,35.0982603 6.63659327,54.3840886 5.87367391,66.6200627 C5.05923102,79.6823897 2.20946659,93.3211937 5.87367391,105.883446 C10.0809398,120.307503 38.0411664,147.674048 52.1308293,155.723796 C59.8471108,160.132285 71.805014,151.982324 76.2697153,148.483766 C92.4999493,135.765692 113.780348,119.382483 121.078762,98.0247701 C125.263097,85.7799419 125.703942,71.2760045 134.141675,60.5723319 C134.78124,59.7610126 136.023017,58.1774312 136.753509,58.9076125 C140.57313,62.7256072 135.799168,65.2761012 133.15756,65.2103003 C132.569923,65.1956626 132.471861,64.1269171 132.566342,63.5455809 L132.566342,18.6731432 C133.682045,11.8083355 140.658084,7.11949537 142.811617,0.507454611 C143.466924,-1.50454618 139.378575,3.06508774 137.404597,3.81814666 C132.612077,5.64645942 127.666663,7.11274738 122.654095,8.19740863 C112.339979,10.4292629 100.699423,8.59672418 91.4879527,13.7539722 C87.8958242,15.7651058 91.7971499,22.127708 90.6834479,26.0968921 C89.1658934,31.5053881 86.0410186,36.3251683 83.719804,41.4393064" id="Path-8"></path>
                </g>
            </g>
        </g>
    </g>
</svg>