<?xml version="1.0" encoding="UTF-8"?>
<svg width="247px" height="28px" viewBox="0 0 247 28" version="1.1" xmlns="http://www.w3.org/2000/svg" xmlns:xlink="http://www.w3.org/1999/xlink">
    <!-- Generator: Sketch 47.1 (45422) - http://www.bohemiancoding.com/sketch -->
    <title>Steps</title>
    <desc>Created with Sketch.</desc>
    <defs></defs>
    <g id="Page-1" stroke="none" stroke-width="1" fill="none" fill-rule="evenodd">
        <g id="tablet" transform="translate(-99.000000, -1623.000000)">
            <g id="Steps" transform="translate(99.000000, 1623.000000)">
                <path d="M0.5,23.5 L246.5,23.5" id="Line-3" stroke="#443D3D" stroke-linecap="square"></path>
                <circle id="Oval-9" fill="#443D3D" cx="54.5" cy="23.5" r="3.5"></circle>
                <circle id="Oval-9-Copy-2" fill="#443D3D" cx="137.5" cy="23.5" r="3.5"></circle>
                <circle id="Oval-9-Copy-3" fill="#443D3D" cx="175.5" cy="24.5" r="3.5"></circle>
                <path d="M43.1074219,2.49023438 C43.3909519,2.49023438 43.6829412,2.527262 43.9833984,2.60131836 C44.2838557,2.67537472 44.558918,2.77058861 44.8085938,2.88696289 C45.0582695,3.00333717 45.2635083,3.13346282 45.4243164,3.27734375 C45.5851245,3.42122468 45.6655273,3.56087172 45.6655273,3.69628906 C45.6655273,3.76399773 45.6359052,3.83911092 45.5766602,3.92163086 C45.5174151,4.0041508 45.4454757,4.08243778 45.3608398,4.15649414 C45.276204,4.2305505 45.1841639,4.29191056 45.0847168,4.34057617 C44.9852697,4.38924178 44.8974613,4.41357422 44.8212891,4.41357422 C44.7197261,4.41357422 44.6065273,4.37125693 44.4816895,4.28662109 C44.3568516,4.20198525 44.2193204,4.10782929 44.0690918,4.00415039 C43.9188632,3.90047149 43.7548837,3.80631553 43.5771484,3.72167969 C43.3994132,3.63704385 43.2068695,3.59472656 42.9995117,3.59472656 C42.8640944,3.59472656 42.7530115,3.62752246 42.6662598,3.69311523 C42.579508,3.75870801 42.5361328,3.85074811 42.5361328,3.96923828 C42.5361328,4.07503308 42.5869136,4.18188423 42.6884766,4.28979492 C42.7900396,4.39770562 42.924397,4.50878849 43.0915527,4.62304688 C43.2587085,4.73730526 43.4480784,4.85790952 43.659668,4.98486328 C43.8712576,5.11181704 44.0881337,5.24723235 44.3103027,5.39111328 C44.5324718,5.53499421 44.7493479,5.69156816 44.9609375,5.86083984 C45.1725271,6.03011152 45.361897,6.21419171 45.5290527,6.41308594 C45.6962085,6.61198016 45.8305659,6.82885625 45.9321289,7.0637207 C46.0336919,7.29858516 46.0844727,7.5535468 46.0844727,7.82861328 C46.0844727,8.06559363 46.0421554,8.28141179 45.9575195,8.47607422 C45.8728837,8.67073665 45.7522794,8.83788993 45.5957031,8.97753906 C45.4391268,9.1171882 45.2529308,9.22509728 45.0371094,9.30126953 C44.821288,9.37744179 44.5843112,9.41552734 44.3261719,9.41552734 C44.0003239,9.41552734 43.6998712,9.36580453 43.4248047,9.26635742 C43.1497382,9.16691031 42.9127614,9.03043707 42.7138672,8.85693359 C42.514973,8.68343012 42.3594569,8.47607542 42.2473145,8.23486328 C42.135172,7.99365114 42.0791016,7.72916811 42.0791016,7.44140625 C42.0791016,7.06900855 42.1457513,6.79817793 42.2790527,6.62890625 C42.4123542,6.45963457 42.6228827,6.375 42.9106445,6.375 C43.0883798,6.375 43.2301427,6.40885383 43.3359375,6.4765625 C43.4417323,6.54427117 43.4946289,6.62678988 43.4946289,6.72412109 C43.4946289,6.7749026 43.4861654,6.82674127 43.4692383,6.87963867 C43.4523111,6.93253607 43.4343263,6.98754854 43.4152832,7.04467773 C43.3962401,7.10180693 43.3793132,7.16210906 43.364502,7.22558594 C43.3496907,7.28906282 43.3422852,7.35253875 43.3422852,7.41601562 C43.3422852,7.52604222 43.3676755,7.63183543 43.418457,7.73339844 C43.4692385,7.83496145 43.5380041,7.92488568 43.6247559,8.00317383 C43.7115076,8.08146198 43.8120111,8.14387998 43.9262695,8.19042969 C44.0405279,8.2369794 44.1611322,8.26025391 44.2880859,8.26025391 C44.6266293,8.26025391 44.7958984,8.12060687 44.7958984,7.84130859 C44.7958984,7.62125541 44.709148,7.41284278 44.5356445,7.21606445 C44.3621411,7.01928613 44.144207,6.82674248 43.8818359,6.63842773 C43.6194648,6.45011299 43.336997,6.26074314 43.0344238,6.0703125 C42.7318507,5.87988186 42.4493828,5.68099062 42.1870117,5.47363281 C41.9246406,5.266275 41.7067066,5.04516719 41.5332031,4.81030273 C41.3596997,4.57543828 41.2729492,4.32047664 41.2729492,4.04541016 C41.2729492,3.81689339 41.3205562,3.60742283 41.4157715,3.41699219 C41.5109868,3.22656155 41.6411125,3.06258207 41.8061523,2.92504883 C41.9711922,2.78751559 42.1647938,2.68066444 42.3869629,2.60449219 C42.609132,2.52831993 42.8492826,2.49023438 43.1074219,2.49023438 Z M46.9033203,0.668457031 C46.9033203,0.444172056 46.9667962,0.286540168 47.09375,0.195556641 C47.2207038,0.104573113 47.4301743,0.0590820312 47.722168,0.0590820312 C47.8279628,0.0590820312 47.917887,0.0686034204 47.9919434,0.0876464844 C48.0659997,0.106689548 48.1294756,0.141601309 48.182373,0.192382812 C48.2352704,0.243164316 48.2775877,0.309814041 48.3093262,0.392333984 C48.3410646,0.474853928 48.3675129,0.579589209 48.3886719,0.706542969 C48.4394534,1.10009962 48.4955238,1.50634556 48.5568848,1.92529297 C48.6182457,2.34424038 48.6827796,2.76529736 48.7504883,3.18847656 C48.775879,3.3789072 48.8753247,3.47412109 49.0488281,3.47412109 C49.0953778,3.47412109 49.1726069,3.46883143 49.2805176,3.45825195 C49.3884283,3.44767247 49.5164381,3.43497729 49.6645508,3.42016602 C49.8126635,3.40535474 49.9724113,3.38948576 50.1437988,3.37255859 C50.3151864,3.35563143 50.4865714,3.33976244 50.657959,3.32495117 C50.8293466,3.3101399 50.9922681,3.29744471 51.1467285,3.28686523 C51.3011889,3.27628575 51.4376622,3.27099609 51.5561523,3.27099609 C51.6492518,3.27099609 51.723307,3.28898094 51.7783203,3.32495117 C51.8333336,3.3609214 51.8767088,3.40747042 51.9084473,3.46459961 C51.9401857,3.5217288 51.9613443,3.58520473 51.9719238,3.6550293 C51.9825033,3.72485386 51.987793,3.79573532 51.987793,3.86767578 C51.987793,3.93115266 51.9761557,3.99674445 51.9528809,4.06445312 C51.929606,4.1321618 51.897868,4.19246393 51.857666,4.24536133 C51.817464,4.29825873 51.7677412,4.34163395 51.7084961,4.37548828 C51.649251,4.40934262 51.5815433,4.42626953 51.5053711,4.42626953 C51.1372052,4.42626953 50.765871,4.43790678 50.3913574,4.46118164 C50.0168438,4.4844565 49.6433938,4.51513653 49.2709961,4.55322266 C49.0805655,4.57861341 48.9853516,4.6738273 48.9853516,4.83886719 C48.9853516,4.85156256 48.9874674,4.86743155 48.9916992,4.88647461 C48.995931,4.90551767 48.9980469,4.92138666 48.9980469,4.93408203 C49.0488284,5.30224793 49.0964353,5.64713381 49.1408691,5.96875 C49.185303,6.29036619 49.2233885,6.5770658 49.255127,6.82885742 C49.2868654,7.08064905 49.3122558,7.29011961 49.3312988,7.45727539 C49.3503419,7.62443117 49.3598633,7.73551405 49.3598633,7.79052734 C49.3598633,7.94287186 49.3450522,8.07088164 49.3154297,8.17456055 C49.2858071,8.27823945 49.2371423,8.36287402 49.1694336,8.4284668 C49.1017249,8.49405957 49.0118007,8.54060859 48.8996582,8.56811523 C48.7875157,8.59562188 48.6468107,8.609375 48.4775391,8.609375 C48.316731,8.609375 48.1982426,8.57128944 48.1220703,8.49511719 C48.0458981,8.41894493 48.0035808,8.3025724 47.9951172,8.14599609 C47.9697264,7.64664464 47.929525,7.14412688 47.8745117,6.63842773 C47.8194984,6.13272859 47.7560225,5.62809497 47.684082,5.12451172 C47.6459959,4.94254466 47.550782,4.8515625 47.3984375,4.8515625 C47.3857421,4.8515625 47.3709311,4.85367836 47.3540039,4.85791016 C47.3370767,4.86214195 47.3222657,4.86425781 47.3095703,4.86425781 C47.0471992,4.9235029 46.7996431,4.9827471 46.5668945,5.04199219 C46.334146,5.10123728 46.116212,5.1647132 45.9130859,5.23242187 C45.7988276,5.270508 45.6972661,5.29695631 45.6083984,5.31176758 C45.5195308,5.32657885 45.439128,5.33398437 45.3671875,5.33398437 C45.2698563,5.33398437 45.1979169,5.29060916 45.1513672,5.20385742 C45.1048175,5.11710569 45.081543,5.00813868 45.081543,4.87695312 C45.081543,4.83040341 45.0857747,4.77644887 45.0942383,4.71508789 C45.1027019,4.65372691 45.1185708,4.59236684 45.1418457,4.53100586 C45.1651206,4.46964488 45.1989744,4.41251654 45.2434082,4.35961914 C45.287842,4.30672174 45.3481442,4.26334652 45.4243164,4.22949219 C45.6020517,4.15755172 45.8390285,4.08243854 46.1352539,4.00415039 C46.4314793,3.92586224 46.7657859,3.85286492 47.1381836,3.78515625 C47.2228194,3.76399729 47.2894692,3.72908553 47.3381348,3.68041992 C47.3868004,3.63175431 47.4111328,3.558757 47.4111328,3.46142578 L47.4111328,3.39477539 C47.4111328,3.37150053 47.4069011,3.3471681 47.3984375,3.32177734 C47.3307288,2.93245248 47.266195,2.57804522 47.204834,2.25854492 C47.143473,1.93904463 47.0905764,1.66504021 47.0461426,1.43652344 C47.0017088,1.20800667 46.966797,1.02815821 46.9414062,0.896972656 C46.9160155,0.765787104 46.9033203,0.689615991 46.9033203,0.668457031 Z M57.0214844,6.60986328 C57.1442063,6.50406848 57.2648106,6.45117188 57.3833008,6.45117188 C57.4510095,6.45117188 57.5123695,6.46809879 57.5673828,6.50195312 C57.6223961,6.53580746 57.6837562,6.58870407 57.7514648,6.66064453 C57.8149417,6.75797575 57.8604328,6.83732066 57.8879395,6.89868164 C57.9154461,6.96004262 57.9291992,7.02034476 57.9291992,7.07958984 C57.9291992,7.2065436 57.8657233,7.32714787 57.7387695,7.44140625 C57.5356435,7.61067793 57.3155936,7.76196222 57.0786133,7.89526367 C56.8416329,8.02856512 56.5940768,8.14176386 56.3359375,8.23486328 C56.0777982,8.32796271 55.8111993,8.39884416 55.5361328,8.44750977 C55.2610663,8.49617537 54.9881198,8.52050781 54.7172852,8.52050781 C54.37451,8.52050781 54.0528986,8.4771326 53.7524414,8.39038086 C53.4519842,8.30362912 53.1843273,8.17985106 52.9494629,8.01904297 C52.7145984,7.85823487 52.5167651,7.66463329 52.355957,7.43823242 C52.1951489,7.21183155 52.0808923,6.95686991 52.0131836,6.67333984 C51.9750975,6.55484967 51.9401857,6.47762062 51.9084473,6.44165039 C51.8767088,6.40568016 51.8248702,6.38769531 51.7529297,6.38769531 C51.5963534,6.38769531 51.4757491,6.34960976 51.3911133,6.2734375 C51.3064774,6.19726524 51.2641602,6.0872403 51.2641602,5.94335938 C51.2641602,5.88411429 51.2683919,5.84602873 51.2768555,5.82910156 L51.2895508,5.70214844 C51.3107097,5.54980393 51.3519691,5.43977898 51.4133301,5.37207031 C51.4746911,5.30436164 51.5709629,5.27050781 51.7021484,5.27050781 L51.7973633,5.27050781 C51.9750985,5.27050781 52.0999345,5.18798911 52.171875,5.02294922 C52.3030606,4.73095557 52.4702138,4.46435667 52.6733398,4.22314453 C52.8764659,3.98193239 53.1049792,3.77563562 53.3588867,3.60424805 C53.6127942,3.43286047 53.8846828,3.29956102 54.1745605,3.2043457 C54.4644383,3.10913038 54.7596014,3.06152344 55.0600586,3.06152344 C55.3732112,3.06152344 55.6662584,3.10701452 55.939209,3.19799805 C56.2121596,3.28898157 56.4501943,3.4148755 56.6533203,3.57568359 C56.8564463,3.73649169 57.0161941,3.92480361 57.1325684,4.140625 C57.2489426,4.35644639 57.3071289,4.58919146 57.3071289,4.83886719 C57.3071289,5.01237066 57.2732751,5.17106048 57.2055664,5.31494141 C57.1378577,5.45882233 57.040528,5.58471626 56.9135742,5.69262695 C56.7866205,5.80053765 56.6332203,5.88834602 56.4533691,5.95605469 C56.273518,6.02376336 56.0693371,6.06819651 55.8408203,6.08935547 L53.6381836,6.31152344 C53.5535478,6.31152344 53.4847822,6.33268208 53.4318848,6.375 C53.3789874,6.41731792 53.3525391,6.47444625 53.3525391,6.54638672 C53.3525391,6.65641331 53.3937984,6.76220652 53.4763184,6.86376953 C53.5588383,6.96533254 53.6688632,7.05525677 53.8063965,7.13354492 C53.9439297,7.21183307 54.1026195,7.27425107 54.2824707,7.32080078 C54.4623219,7.36735049 54.64746,7.390625 54.8378906,7.390625 C55.0198577,7.390625 55.2071117,7.37264015 55.3996582,7.33666992 C55.5922047,7.30069969 55.7826325,7.24886102 55.9709473,7.18115234 C56.159262,7.11344367 56.3422843,7.0319829 56.5200195,6.93676758 C56.6977548,6.84155226 56.8649081,6.73258525 57.0214844,6.60986328 Z M55.605957,4.97216797 C55.6694339,4.95947259 55.7244464,4.92879256 55.7709961,4.88012695 C55.8175458,4.83146135 55.8408203,4.77115921 55.8408203,4.69921875 C55.8408203,4.63574187 55.8175458,4.57649767 55.7709961,4.52148438 C55.7244464,4.46647108 55.6609705,4.41674827 55.5805664,4.37231445 C55.5001624,4.32788064 55.4070643,4.29296888 55.3012695,4.26757812 C55.1954747,4.24218737 55.0833339,4.22949219 54.9648438,4.22949219 C54.7913403,4.22949219 54.6136077,4.25488256 54.4316406,4.30566406 C54.2496736,4.35644557 54.0846362,4.42309529 53.9365234,4.50561523 C53.7884107,4.58813518 53.6678065,4.67911734 53.574707,4.77856445 C53.4816076,4.87801156 53.4350586,4.97639925 53.4350586,5.07373047 C53.4350586,5.17106168 53.4943028,5.21972656 53.612793,5.21972656 C53.6847334,5.21972656 53.801106,5.21126311 53.9619141,5.19433594 C54.1227222,5.17740877 54.3004548,5.15730806 54.4951172,5.1340332 C54.6897796,5.11075835 54.886555,5.08431004 55.0854492,5.0546875 C55.2843434,5.02506496 55.4578443,4.99755872 55.605957,4.97216797 Z M57.7133789,3.56933594 C57.7133789,3.40429605 57.7874342,3.27840213 57.9355469,3.19165039 C58.0836596,3.10489865 58.295246,3.06152344 58.5703125,3.06152344 C58.6337894,3.06152344 58.6909177,3.06998689 58.7416992,3.08691406 C58.7924807,3.10384123 58.8379718,3.13663713 58.8781738,3.18530273 C58.9183759,3.23396834 58.9554035,3.30061807 58.9892578,3.38525391 C59.0231121,3.46988975 59.056966,3.57779882 59.0908203,3.70898438 C59.1246746,3.85709709 59.1585285,3.93115234 59.1923828,3.93115234 C59.2220054,3.93115234 59.257975,3.86979228 59.300293,3.74707031 C59.3764652,3.50585817 59.4769688,3.29532968 59.6018066,3.11547852 C59.7266445,2.93562736 59.8673495,2.78540099 60.0239258,2.66479492 C60.1805021,2.54418885 60.3508292,2.45426462 60.5349121,2.39501953 C60.7189951,2.33577444 60.9125966,2.30615234 61.1157227,2.30615234 C61.5262065,2.30615234 61.9091779,2.38338139 62.2646484,2.5378418 C62.620119,2.6923022 62.9269193,2.90600449 63.1850586,3.17895508 C63.4431979,3.45190566 63.6463209,3.77351703 63.7944336,4.14379883 C63.9425463,4.51408063 64.0166016,4.9150369 64.0166016,5.34667969 C64.0166016,5.80371322 63.9372567,6.22688607 63.7785645,6.61621094 C63.6198723,7.0055358 63.3987644,7.34090029 63.1152344,7.62231445 C62.8317043,7.90372862 62.494224,8.1237785 62.1027832,8.2824707 C61.7113424,8.4411629 61.2828799,8.52050781 60.8173828,8.52050781 L60.4936523,8.5078125 C60.3032217,8.5078125 60.2080078,8.61572158 60.2080078,8.83154297 L60.5317383,11.7451172 C60.5275065,11.8170577 60.5031741,11.8837074 60.4587402,11.9450684 C60.4143064,12.0064293 60.3550622,12.0603839 60.2810059,12.1069336 C60.2069495,12.1534833 60.1201991,12.189453 60.020752,12.2148438 C59.9213048,12.2402345 59.8186854,12.2529297 59.7128906,12.2529297 C59.4082016,12.2529297 59.2431642,12.1534841 59.2177734,11.9545898 C59.1289058,11.1844037 59.0305181,10.4523147 58.9226074,9.75830078 C58.8146967,9.06428689 58.7046718,8.41789036 58.5925293,7.8190918 C58.4803868,7.22029323 58.3714198,6.67545818 58.265625,6.18457031 C58.1598302,5.69368244 58.0656742,5.26627786 57.9831543,4.90234375 C57.9006344,4.53840964 57.8350426,4.24218864 57.786377,4.01367188 C57.7377113,3.78515511 57.7133789,3.63704461 57.7133789,3.56933594 Z M59.7763672,5.24511719 C59.7763672,5.52018367 59.7869465,5.79207222 59.8081055,6.06079102 C59.8292644,6.32950981 59.8631183,6.62044114 59.909668,6.93359375 C59.9350587,7.12402439 60.0387361,7.23193347 60.2207031,7.25732422 C60.3307297,7.28271497 60.4545078,7.30704741 60.592041,7.33032227 C60.7295743,7.35359712 60.8448889,7.36523438 60.9379883,7.36523438 C61.208823,7.36523438 61.4542632,7.32503295 61.6743164,7.24462891 C61.8943696,7.16422486 62.0826815,7.04891026 62.2392578,6.89868164 C62.3958341,6.74845302 62.5164384,6.5696625 62.6010742,6.36230469 C62.6857101,6.15494688 62.7280273,5.92431768 62.7280273,5.67041016 C62.7280273,5.36148934 62.6857101,5.07267387 62.6010742,4.80395508 C62.5164384,4.53523629 62.4011238,4.30143329 62.255127,4.10253906 C62.1091301,3.90364484 61.9377451,3.74707088 61.7409668,3.6328125 C61.5441885,3.51855412 61.3315441,3.46142578 61.1030273,3.46142578 C60.9041331,3.46142578 60.7232267,3.504801 60.5603027,3.59155273 C60.3973787,3.67830447 60.2577317,3.79890873 60.1413574,3.95336914 C60.0249831,4.10782955 59.9350589,4.29508354 59.871582,4.51513672 C59.8081052,4.7351899 59.7763672,4.97851429 59.7763672,5.24511719 Z M68.1235352,4.50244141 C68.005045,4.61669979 67.880209,4.67382812 67.7490234,4.67382812 C67.6897783,4.67382812 67.6284183,4.66007501 67.5649414,4.63256836 C67.5014645,4.60506171 67.4274093,4.55745477 67.3427734,4.48974609 C67.1861971,4.37125592 67.1079102,4.24641993 67.1079102,4.11523438 C67.1079102,4.03059854 67.1555171,3.93115292 67.2507324,3.81689453 C67.3459477,3.70263615 67.4697258,3.58308982 67.6220703,3.45825195 C67.7744148,3.33341409 67.9468578,3.2054043 68.1394043,3.07421875 C68.3319508,2.9430332 68.5276683,2.81819721 68.7265625,2.69970703 C68.9254567,2.58121686 69.1180004,2.47330778 69.3041992,2.37597656 C69.4903981,2.27864535 69.6512038,2.1982425 69.7866211,2.13476563 C69.8670251,2.10091129 69.9410804,2.07552092 70.0087891,2.05859375 C70.0764977,2.04166658 70.1463213,2.03320313 70.2182617,2.03320313 C70.3621426,2.03320313 70.4859207,2.05753556 70.5895996,2.10620117 C70.6932785,2.15486678 70.7810869,2.2215165 70.8530273,2.30615234 C70.9249678,2.39078818 70.9852699,2.48706001 71.0339355,2.5949707 C71.0826012,2.7028814 71.1228026,2.8150222 71.154541,2.93139648 C71.1862795,3.04777076 71.2127278,3.16625916 71.2338867,3.28686523 C71.2550457,3.40747131 71.2762043,3.51855418 71.2973633,3.62011719 C71.3312176,3.79362066 71.3661294,3.99356983 71.4020996,4.2199707 C71.4380698,4.44637157 71.4708657,4.68123251 71.5004883,4.92456055 C71.5301108,5.16788859 71.558675,5.40909711 71.5861816,5.64819336 C71.6136883,5.88728961 71.6380207,6.10945535 71.6591797,6.31469727 C71.6803386,6.51993918 71.6962076,6.69767177 71.7067871,6.84790039 C71.7173666,6.99812901 71.7226562,7.10498015 71.7226562,7.16845703 C71.7226562,7.46468247 71.5766616,7.63818334 71.284668,7.68896484 C71.1238599,7.72281918 71.0180667,7.74186196 70.9672852,7.74609375 C70.9165037,7.75032554 70.8826498,7.75244141 70.8657227,7.75244141 C70.7345371,7.75244141 70.6298018,7.71435585 70.5515137,7.63818359 C70.4732255,7.56201134 70.4277344,7.44775467 70.4150391,7.29541016 C70.3684894,6.72835003 70.3155927,6.1644722 70.2563477,5.60375977 C70.1971026,5.04304733 70.1061204,4.48551709 69.9833984,3.93115234 C69.9580077,3.80843038 69.9135745,3.71533235 69.8500977,3.65185547 C69.7866208,3.58837859 69.7104497,3.55664063 69.621582,3.55664063 C69.5369462,3.55664063 69.431153,3.59049445 69.3041992,3.65820312 C69.1772455,3.7259118 69.043946,3.8084305 68.9042969,3.90576172 C68.7646477,4.00309293 68.6260586,4.10571235 68.4885254,4.21362305 C68.3509922,4.32153374 68.22933,4.41780557 68.1235352,4.50244141 Z" id="step-1" fill="#443D3D"></path>
                <path d="M126.107422,2.49023438 C126.390952,2.49023438 126.682941,2.527262 126.983398,2.60131836 C127.283856,2.67537472 127.558918,2.77058861 127.808594,2.88696289 C128.058269,3.00333717 128.263508,3.13346282 128.424316,3.27734375 C128.585125,3.42122468 128.665527,3.56087172 128.665527,3.69628906 C128.665527,3.76399773 128.635905,3.83911092 128.57666,3.92163086 C128.517415,4.0041508 128.445476,4.08243778 128.36084,4.15649414 C128.276204,4.2305505 128.184164,4.29191056 128.084717,4.34057617 C127.98527,4.38924178 127.897461,4.41357422 127.821289,4.41357422 C127.719726,4.41357422 127.606527,4.37125693 127.481689,4.28662109 C127.356852,4.20198525 127.21932,4.10782929 127.069092,4.00415039 C126.918863,3.90047149 126.754884,3.80631553 126.577148,3.72167969 C126.399413,3.63704385 126.20687,3.59472656 125.999512,3.59472656 C125.864094,3.59472656 125.753012,3.62752246 125.66626,3.69311523 C125.579508,3.75870801 125.536133,3.85074811 125.536133,3.96923828 C125.536133,4.07503308 125.586914,4.18188423 125.688477,4.28979492 C125.79004,4.39770562 125.924397,4.50878849 126.091553,4.62304688 C126.258709,4.73730526 126.448078,4.85790952 126.659668,4.98486328 C126.871258,5.11181704 127.088134,5.24723235 127.310303,5.39111328 C127.532472,5.53499421 127.749348,5.69156816 127.960938,5.86083984 C128.172527,6.03011152 128.361897,6.21419171 128.529053,6.41308594 C128.696209,6.61198016 128.830566,6.82885625 128.932129,7.0637207 C129.033692,7.29858516 129.084473,7.5535468 129.084473,7.82861328 C129.084473,8.06559363 129.042155,8.28141179 128.95752,8.47607422 C128.872884,8.67073665 128.752279,8.83788993 128.595703,8.97753906 C128.439127,9.1171882 128.252931,9.22509728 128.037109,9.30126953 C127.821288,9.37744179 127.584311,9.41552734 127.326172,9.41552734 C127.000324,9.41552734 126.699871,9.36580453 126.424805,9.26635742 C126.149738,9.16691031 125.912761,9.03043707 125.713867,8.85693359 C125.514973,8.68343012 125.359457,8.47607542 125.247314,8.23486328 C125.135172,7.99365114 125.079102,7.72916811 125.079102,7.44140625 C125.079102,7.06900855 125.145751,6.79817793 125.279053,6.62890625 C125.412354,6.45963457 125.622883,6.375 125.910645,6.375 C126.08838,6.375 126.230143,6.40885383 126.335938,6.4765625 C126.441732,6.54427117 126.494629,6.62678988 126.494629,6.72412109 C126.494629,6.7749026 126.486165,6.82674127 126.469238,6.87963867 C126.452311,6.93253607 126.434326,6.98754854 126.415283,7.04467773 C126.39624,7.10180693 126.379313,7.16210906 126.364502,7.22558594 C126.349691,7.28906282 126.342285,7.35253875 126.342285,7.41601562 C126.342285,7.52604222 126.367676,7.63183543 126.418457,7.73339844 C126.469239,7.83496145 126.538004,7.92488568 126.624756,8.00317383 C126.711508,8.08146198 126.812011,8.14387998 126.92627,8.19042969 C127.040528,8.2369794 127.161132,8.26025391 127.288086,8.26025391 C127.626629,8.26025391 127.795898,8.12060687 127.795898,7.84130859 C127.795898,7.62125541 127.709148,7.41284278 127.535645,7.21606445 C127.362141,7.01928613 127.144207,6.82674248 126.881836,6.63842773 C126.619465,6.45011299 126.336997,6.26074314 126.034424,6.0703125 C125.731851,5.87988186 125.449383,5.68099062 125.187012,5.47363281 C124.924641,5.266275 124.706707,5.04516719 124.533203,4.81030273 C124.3597,4.57543828 124.272949,4.32047664 124.272949,4.04541016 C124.272949,3.81689339 124.320556,3.60742283 124.415771,3.41699219 C124.510987,3.22656155 124.641112,3.06258207 124.806152,2.92504883 C124.971192,2.78751559 125.164794,2.68066444 125.386963,2.60449219 C125.609132,2.52831993 125.849283,2.49023438 126.107422,2.49023438 Z M129.90332,0.668457031 C129.90332,0.444172056 129.966796,0.286540168 130.09375,0.195556641 C130.220704,0.104573113 130.430174,0.0590820312 130.722168,0.0590820312 C130.827963,0.0590820312 130.917887,0.0686034204 130.991943,0.0876464844 C131.066,0.106689548 131.129476,0.141601309 131.182373,0.192382812 C131.23527,0.243164316 131.277588,0.309814041 131.309326,0.392333984 C131.341065,0.474853928 131.367513,0.579589209 131.388672,0.706542969 C131.439453,1.10009962 131.495524,1.50634556 131.556885,1.92529297 C131.618246,2.34424038 131.68278,2.76529736 131.750488,3.18847656 C131.775879,3.3789072 131.875325,3.47412109 132.048828,3.47412109 C132.095378,3.47412109 132.172607,3.46883143 132.280518,3.45825195 C132.388428,3.44767247 132.516438,3.43497729 132.664551,3.42016602 C132.812664,3.40535474 132.972411,3.38948576 133.143799,3.37255859 C133.315186,3.35563143 133.486571,3.33976244 133.657959,3.32495117 C133.829347,3.3101399 133.992268,3.29744471 134.146729,3.28686523 C134.301189,3.27628575 134.437662,3.27099609 134.556152,3.27099609 C134.649252,3.27099609 134.723307,3.28898094 134.77832,3.32495117 C134.833334,3.3609214 134.876709,3.40747042 134.908447,3.46459961 C134.940186,3.5217288 134.961344,3.58520473 134.971924,3.6550293 C134.982503,3.72485386 134.987793,3.79573532 134.987793,3.86767578 C134.987793,3.93115266 134.976156,3.99674445 134.952881,4.06445312 C134.929606,4.1321618 134.897868,4.19246393 134.857666,4.24536133 C134.817464,4.29825873 134.767741,4.34163395 134.708496,4.37548828 C134.649251,4.40934262 134.581543,4.42626953 134.505371,4.42626953 C134.137205,4.42626953 133.765871,4.43790678 133.391357,4.46118164 C133.016844,4.4844565 132.643394,4.51513653 132.270996,4.55322266 C132.080565,4.57861341 131.985352,4.6738273 131.985352,4.83886719 C131.985352,4.85156256 131.987467,4.86743155 131.991699,4.88647461 C131.995931,4.90551767 131.998047,4.92138666 131.998047,4.93408203 C132.048828,5.30224793 132.096435,5.64713381 132.140869,5.96875 C132.185303,6.29036619 132.223389,6.5770658 132.255127,6.82885742 C132.286865,7.08064905 132.312256,7.29011961 132.331299,7.45727539 C132.350342,7.62443117 132.359863,7.73551405 132.359863,7.79052734 C132.359863,7.94287186 132.345052,8.07088164 132.31543,8.17456055 C132.285807,8.27823945 132.237142,8.36287402 132.169434,8.4284668 C132.101725,8.49405957 132.011801,8.54060859 131.899658,8.56811523 C131.787516,8.59562188 131.646811,8.609375 131.477539,8.609375 C131.316731,8.609375 131.198243,8.57128944 131.12207,8.49511719 C131.045898,8.41894493 131.003581,8.3025724 130.995117,8.14599609 C130.969726,7.64664464 130.929525,7.14412688 130.874512,6.63842773 C130.819498,6.13272859 130.756022,5.62809497 130.684082,5.12451172 C130.645996,4.94254466 130.550782,4.8515625 130.398438,4.8515625 C130.385742,4.8515625 130.370931,4.85367836 130.354004,4.85791016 C130.337077,4.86214195 130.322266,4.86425781 130.30957,4.86425781 C130.047199,4.9235029 129.799643,4.9827471 129.566895,5.04199219 C129.334146,5.10123728 129.116212,5.1647132 128.913086,5.23242187 C128.798828,5.270508 128.697266,5.29695631 128.608398,5.31176758 C128.519531,5.32657885 128.439128,5.33398437 128.367188,5.33398437 C128.269856,5.33398437 128.197917,5.29060916 128.151367,5.20385742 C128.104817,5.11710569 128.081543,5.00813868 128.081543,4.87695312 C128.081543,4.83040341 128.085775,4.77644887 128.094238,4.71508789 C128.102702,4.65372691 128.118571,4.59236684 128.141846,4.53100586 C128.165121,4.46964488 128.198974,4.41251654 128.243408,4.35961914 C128.287842,4.30672174 128.348144,4.26334652 128.424316,4.22949219 C128.602052,4.15755172 128.839028,4.08243854 129.135254,4.00415039 C129.431479,3.92586224 129.765786,3.85286492 130.138184,3.78515625 C130.222819,3.76399729 130.289469,3.72908553 130.338135,3.68041992 C130.3868,3.63175431 130.411133,3.558757 130.411133,3.46142578 L130.411133,3.39477539 C130.411133,3.37150053 130.406901,3.3471681 130.398438,3.32177734 C130.330729,2.93245248 130.266195,2.57804522 130.204834,2.25854492 C130.143473,1.93904463 130.090576,1.66504021 130.046143,1.43652344 C130.001709,1.20800667 129.966797,1.02815821 129.941406,0.896972656 C129.916015,0.765787104 129.90332,0.689615991 129.90332,0.668457031 Z M140.021484,6.60986328 C140.144206,6.50406848 140.264811,6.45117188 140.383301,6.45117188 C140.451009,6.45117188 140.51237,6.46809879 140.567383,6.50195312 C140.622396,6.53580746 140.683756,6.58870407 140.751465,6.66064453 C140.814942,6.75797575 140.860433,6.83732066 140.887939,6.89868164 C140.915446,6.96004262 140.929199,7.02034476 140.929199,7.07958984 C140.929199,7.2065436 140.865723,7.32714787 140.73877,7.44140625 C140.535644,7.61067793 140.315594,7.76196222 140.078613,7.89526367 C139.841633,8.02856512 139.594077,8.14176386 139.335938,8.23486328 C139.077798,8.32796271 138.811199,8.39884416 138.536133,8.44750977 C138.261066,8.49617537 137.98812,8.52050781 137.717285,8.52050781 C137.37451,8.52050781 137.052899,8.4771326 136.752441,8.39038086 C136.451984,8.30362912 136.184327,8.17985106 135.949463,8.01904297 C135.714598,7.85823487 135.516765,7.66463329 135.355957,7.43823242 C135.195149,7.21183155 135.080892,6.95686991 135.013184,6.67333984 C134.975097,6.55484967 134.940186,6.47762062 134.908447,6.44165039 C134.876709,6.40568016 134.82487,6.38769531 134.75293,6.38769531 C134.596353,6.38769531 134.475749,6.34960976 134.391113,6.2734375 C134.306477,6.19726524 134.26416,6.0872403 134.26416,5.94335938 C134.26416,5.88411429 134.268392,5.84602873 134.276855,5.82910156 L134.289551,5.70214844 C134.31071,5.54980393 134.351969,5.43977898 134.41333,5.37207031 C134.474691,5.30436164 134.570963,5.27050781 134.702148,5.27050781 L134.797363,5.27050781 C134.975099,5.27050781 135.099935,5.18798911 135.171875,5.02294922 C135.303061,4.73095557 135.470214,4.46435667 135.67334,4.22314453 C135.876466,3.98193239 136.104979,3.77563562 136.358887,3.60424805 C136.612794,3.43286047 136.884683,3.29956102 137.174561,3.2043457 C137.464438,3.10913038 137.759601,3.06152344 138.060059,3.06152344 C138.373211,3.06152344 138.666258,3.10701452 138.939209,3.19799805 C139.21216,3.28898157 139.450194,3.4148755 139.65332,3.57568359 C139.856446,3.73649169 140.016194,3.92480361 140.132568,4.140625 C140.248943,4.35644639 140.307129,4.58919146 140.307129,4.83886719 C140.307129,5.01237066 140.273275,5.17106048 140.205566,5.31494141 C140.137858,5.45882233 140.040528,5.58471626 139.913574,5.69262695 C139.78662,5.80053765 139.63322,5.88834602 139.453369,5.95605469 C139.273518,6.02376336 139.069337,6.06819651 138.84082,6.08935547 L136.638184,6.31152344 C136.553548,6.31152344 136.484782,6.33268208 136.431885,6.375 C136.378987,6.41731792 136.352539,6.47444625 136.352539,6.54638672 C136.352539,6.65641331 136.393798,6.76220652 136.476318,6.86376953 C136.558838,6.96533254 136.668863,7.05525677 136.806396,7.13354492 C136.94393,7.21183307 137.10262,7.27425107 137.282471,7.32080078 C137.462322,7.36735049 137.64746,7.390625 137.837891,7.390625 C138.019858,7.390625 138.207112,7.37264015 138.399658,7.33666992 C138.592205,7.30069969 138.782633,7.24886102 138.970947,7.18115234 C139.159262,7.11344367 139.342284,7.0319829 139.52002,6.93676758 C139.697755,6.84155226 139.864908,6.73258525 140.021484,6.60986328 Z M138.605957,4.97216797 C138.669434,4.95947259 138.724446,4.92879256 138.770996,4.88012695 C138.817546,4.83146135 138.84082,4.77115921 138.84082,4.69921875 C138.84082,4.63574187 138.817546,4.57649767 138.770996,4.52148438 C138.724446,4.46647108 138.66097,4.41674827 138.580566,4.37231445 C138.500162,4.32788064 138.407064,4.29296888 138.30127,4.26757812 C138.195475,4.24218737 138.083334,4.22949219 137.964844,4.22949219 C137.79134,4.22949219 137.613608,4.25488256 137.431641,4.30566406 C137.249674,4.35644557 137.084636,4.42309529 136.936523,4.50561523 C136.788411,4.58813518 136.667806,4.67911734 136.574707,4.77856445 C136.481608,4.87801156 136.435059,4.97639925 136.435059,5.07373047 C136.435059,5.17106168 136.494303,5.21972656 136.612793,5.21972656 C136.684733,5.21972656 136.801106,5.21126311 136.961914,5.19433594 C137.122722,5.17740877 137.300455,5.15730806 137.495117,5.1340332 C137.68978,5.11075835 137.886555,5.08431004 138.085449,5.0546875 C138.284343,5.02506496 138.457844,4.99755872 138.605957,4.97216797 Z M140.713379,3.56933594 C140.713379,3.40429605 140.787434,3.27840213 140.935547,3.19165039 C141.08366,3.10489865 141.295246,3.06152344 141.570312,3.06152344 C141.633789,3.06152344 141.690918,3.06998689 141.741699,3.08691406 C141.792481,3.10384123 141.837972,3.13663713 141.878174,3.18530273 C141.918376,3.23396834 141.955403,3.30061807 141.989258,3.38525391 C142.023112,3.46988975 142.056966,3.57779882 142.09082,3.70898438 C142.124675,3.85709709 142.158528,3.93115234 142.192383,3.93115234 C142.222005,3.93115234 142.257975,3.86979228 142.300293,3.74707031 C142.376465,3.50585817 142.476969,3.29532968 142.601807,3.11547852 C142.726645,2.93562736 142.867349,2.78540099 143.023926,2.66479492 C143.180502,2.54418885 143.350829,2.45426462 143.534912,2.39501953 C143.718995,2.33577444 143.912597,2.30615234 144.115723,2.30615234 C144.526206,2.30615234 144.909178,2.38338139 145.264648,2.5378418 C145.620119,2.6923022 145.926919,2.90600449 146.185059,3.17895508 C146.443198,3.45190566 146.646321,3.77351703 146.794434,4.14379883 C146.942546,4.51408063 147.016602,4.9150369 147.016602,5.34667969 C147.016602,5.80371322 146.937257,6.22688607 146.778564,6.61621094 C146.619872,7.0055358 146.398764,7.34090029 146.115234,7.62231445 C145.831704,7.90372862 145.494224,8.1237785 145.102783,8.2824707 C144.711342,8.4411629 144.28288,8.52050781 143.817383,8.52050781 L143.493652,8.5078125 C143.303222,8.5078125 143.208008,8.61572158 143.208008,8.83154297 L143.531738,11.7451172 C143.527506,11.8170577 143.503174,11.8837074 143.45874,11.9450684 C143.414306,12.0064293 143.355062,12.0603839 143.281006,12.1069336 C143.206949,12.1534833 143.120199,12.189453 143.020752,12.2148438 C142.921305,12.2402345 142.818685,12.2529297 142.712891,12.2529297 C142.408202,12.2529297 142.243164,12.1534841 142.217773,11.9545898 C142.128906,11.1844037 142.030518,10.4523147 141.922607,9.75830078 C141.814697,9.06428689 141.704672,8.41789036 141.592529,7.8190918 C141.480387,7.22029323 141.37142,6.67545818 141.265625,6.18457031 C141.15983,5.69368244 141.065674,5.26627786 140.983154,4.90234375 C140.900634,4.53840964 140.835043,4.24218864 140.786377,4.01367188 C140.737711,3.78515511 140.713379,3.63704461 140.713379,3.56933594 Z M142.776367,5.24511719 C142.776367,5.52018367 142.786947,5.79207222 142.808105,6.06079102 C142.829264,6.32950981 142.863118,6.62044114 142.909668,6.93359375 C142.935059,7.12402439 143.038736,7.23193347 143.220703,7.25732422 C143.33073,7.28271497 143.454508,7.30704741 143.592041,7.33032227 C143.729574,7.35359712 143.844889,7.36523438 143.937988,7.36523438 C144.208823,7.36523438 144.454263,7.32503295 144.674316,7.24462891 C144.89437,7.16422486 145.082682,7.04891026 145.239258,6.89868164 C145.395834,6.74845302 145.516438,6.5696625 145.601074,6.36230469 C145.68571,6.15494688 145.728027,5.92431768 145.728027,5.67041016 C145.728027,5.36148934 145.68571,5.07267387 145.601074,4.80395508 C145.516438,4.53523629 145.401124,4.30143329 145.255127,4.10253906 C145.10913,3.90364484 144.937745,3.74707088 144.740967,3.6328125 C144.544188,3.51855412 144.331544,3.46142578 144.103027,3.46142578 C143.904133,3.46142578 143.723227,3.504801 143.560303,3.59155273 C143.397379,3.67830447 143.257732,3.79890873 143.141357,3.95336914 C143.024983,4.10782955 142.935059,4.29508354 142.871582,4.51513672 C142.808105,4.7351899 142.776367,4.97851429 142.776367,5.24511719 Z M152.101074,2.85205078 C152.041829,2.949382 151.978353,3.02343725 151.910645,3.07421875 C151.842936,3.12500025 151.766765,3.15039062 151.682129,3.15039062 C151.644043,3.15039062 151.597494,3.14192717 151.54248,3.125 C151.487467,3.10807283 151.404948,3.074219 151.294922,3.0234375 C151.096028,2.91341091 150.996582,2.77376387 150.996582,2.60449219 C150.996582,2.50716097 151.026204,2.41194708 151.085449,2.31884766 C151.199708,2.14111239 151.334065,1.97713291 151.488525,1.8269043 C151.642986,1.67667568 151.818603,1.54655003 152.015381,1.43652344 C152.212159,1.32649685 152.430093,1.23974641 152.669189,1.17626953 C152.908286,1.11279265 153.169595,1.08105469 153.453125,1.08105469 C153.745119,1.08105469 154.022297,1.12548784 154.284668,1.21435547 C154.547039,1.3032231 154.777668,1.42911702 154.976562,1.59204102 C155.175457,1.75496501 155.333089,1.95385625 155.449463,2.1887207 C155.565837,2.42358516 155.624023,2.68701026 155.624023,2.97900391 C155.624023,3.33024264 155.5542,3.67195472 155.414551,4.00415039 C155.274902,4.33634606 155.093995,4.65795743 154.871826,4.96899414 C154.649657,5.28003085 154.398927,5.57625185 154.119629,5.85766602 C153.840331,6.13908018 153.561037,6.40250528 153.281738,6.64794922 C153.235189,6.68603535 153.202393,6.7241209 153.18335,6.76220703 C153.164307,6.80029316 153.154785,6.83626285 153.154785,6.87011719 C153.154785,6.9166669 153.177002,6.95581039 153.221436,6.98754883 C153.265869,7.01928727 153.330403,7.03515625 153.415039,7.03515625 C153.838218,7.05631521 154.257159,7.08487938 154.671875,7.12084961 C155.086591,7.15681984 155.503416,7.19807919 155.922363,7.24462891 C156.205893,7.28271503 156.347656,7.42236208 156.347656,7.66357422 C156.347656,7.69742855 156.34554,7.73657204 156.341309,7.78100586 C156.337077,7.82543968 156.318034,7.90690045 156.28418,8.02539062 C156.250325,8.16927155 156.185791,8.27506477 156.090576,8.34277344 C155.995361,8.41048211 155.882162,8.44433594 155.750977,8.44433594 C155.666341,8.44433594 155.533041,8.43693041 155.351074,8.42211914 C155.169107,8.40730787 154.957521,8.38932302 154.716309,8.36816406 C154.475096,8.3470051 154.212729,8.32267266 153.929199,8.29516602 C153.645669,8.26765937 153.35897,8.24332693 153.069092,8.22216797 C152.779214,8.20100901 152.49463,8.18302416 152.215332,8.16821289 C151.936034,8.15340162 151.680014,8.14599609 151.447266,8.14599609 C151.354166,8.14599609 151.274821,8.12589538 151.209229,8.08569336 C151.143636,8.04549134 151.090739,7.99259473 151.050537,7.92700195 C151.010335,7.86140918 150.981771,7.78418013 150.964844,7.6953125 C150.947917,7.60644487 150.939453,7.51334684 150.939453,7.41601562 C150.939453,7.29752545 150.965901,7.19490603 151.018799,7.1081543 C151.071696,7.02140256 151.146809,6.94205765 151.244141,6.87011719 C151.438803,6.72623626 151.649332,6.56754644 151.875732,6.39404297 C152.102133,6.2205395 152.329589,6.03645931 152.558105,5.84179688 C152.786622,5.64713444 153.005614,5.44295354 153.215088,5.22924805 C153.424562,5.01554255 153.610758,4.79760853 153.773682,4.57543945 C153.936606,4.35327037 154.066731,4.12898876 154.164062,3.90258789 C154.261394,3.67618702 154.310059,3.45084748 154.310059,3.2265625 C154.310059,3.07421799 154.279379,2.93774474 154.218018,2.81713867 C154.156657,2.6965326 154.074138,2.59285525 153.970459,2.50610352 C153.86678,2.41935178 153.747234,2.35375999 153.611816,2.30932617 C153.476399,2.26489236 153.336752,2.24267578 153.192871,2.24267578 C152.913573,2.24267578 152.689291,2.30191998 152.52002,2.42041016 C152.350748,2.53890033 152.211101,2.6827791 152.101074,2.85205078 Z" id="step-2" fill="#443D3D"></path>
                <path d="M176.928711,6.60986328 C177.051433,6.50406848 177.172037,6.45117188 177.290527,6.45117188 C177.358236,6.45117188 177.419596,6.46809879 177.474609,6.50195312 C177.529623,6.53580746 177.590983,6.58870407 177.658691,6.66064453 C177.722168,6.75797575 177.767659,6.83732066 177.795166,6.89868164 C177.822673,6.96004262 177.836426,7.02034476 177.836426,7.07958984 C177.836426,7.2065436 177.77295,7.32714787 177.645996,7.44140625 C177.44287,7.61067793 177.22282,7.76196222 176.98584,7.89526367 C176.748859,8.02856512 176.501303,8.14176386 176.243164,8.23486328 C175.985025,8.32796271 175.718426,8.39884416 175.443359,8.44750977 C175.168293,8.49617537 174.895346,8.52050781 174.624512,8.52050781 C174.281737,8.52050781 173.960125,8.4771326 173.659668,8.39038086 C173.359211,8.30362912 173.091554,8.17985106 172.856689,8.01904297 C172.621825,7.85823487 172.423992,7.66463329 172.263184,7.43823242 C172.102375,7.21183155 171.988119,6.95686991 171.92041,6.67333984 C171.882324,6.55484967 171.847412,6.47762062 171.815674,6.44165039 C171.783935,6.40568016 171.732097,6.38769531 171.660156,6.38769531 C171.50358,6.38769531 171.382976,6.34960976 171.29834,6.2734375 C171.213704,6.19726524 171.171387,6.0872403 171.171387,5.94335938 C171.171387,5.88411429 171.175618,5.84602873 171.184082,5.82910156 L171.196777,5.70214844 C171.217936,5.54980393 171.259196,5.43977898 171.320557,5.37207031 C171.381918,5.30436164 171.478189,5.27050781 171.609375,5.27050781 L171.70459,5.27050781 C171.882325,5.27050781 172.007161,5.18798911 172.079102,5.02294922 C172.210287,4.73095557 172.37744,4.46435667 172.580566,4.22314453 C172.783692,3.98193239 173.012206,3.77563562 173.266113,3.60424805 C173.520021,3.43286047 173.791909,3.29956102 174.081787,3.2043457 C174.371665,3.10913038 174.666828,3.06152344 174.967285,3.06152344 C175.280438,3.06152344 175.573485,3.10701452 175.846436,3.19799805 C176.119386,3.28898157 176.357421,3.4148755 176.560547,3.57568359 C176.763673,3.73649169 176.923421,3.92480361 177.039795,4.140625 C177.156169,4.35644639 177.214355,4.58919146 177.214355,4.83886719 C177.214355,5.01237066 177.180502,5.17106048 177.112793,5.31494141 C177.045084,5.45882233 176.947755,5.58471626 176.820801,5.69262695 C176.693847,5.80053765 176.540447,5.88834602 176.360596,5.95605469 C176.180745,6.02376336 175.976564,6.06819651 175.748047,6.08935547 L173.54541,6.31152344 C173.460774,6.31152344 173.392009,6.33268208 173.339111,6.375 C173.286214,6.41731792 173.259766,6.47444625 173.259766,6.54638672 C173.259766,6.65641331 173.301025,6.76220652 173.383545,6.86376953 C173.466065,6.96533254 173.57609,7.05525677 173.713623,7.13354492 C173.851156,7.21183307 174.009846,7.27425107 174.189697,7.32080078 C174.369548,7.36735049 174.554687,7.390625 174.745117,7.390625 C174.927084,7.390625 175.114338,7.37264015 175.306885,7.33666992 C175.499431,7.30069969 175.689859,7.24886102 175.878174,7.18115234 C176.066489,7.11344367 176.249511,7.0319829 176.427246,6.93676758 C176.604981,6.84155226 176.772135,6.73258525 176.928711,6.60986328 Z M175.513184,4.97216797 C175.57666,4.95947259 175.631673,4.92879256 175.678223,4.88012695 C175.724772,4.83146135 175.748047,4.77115921 175.748047,4.69921875 C175.748047,4.63574187 175.724772,4.57649767 175.678223,4.52148438 C175.631673,4.46647108 175.568197,4.41674827 175.487793,4.37231445 C175.407389,4.32788064 175.314291,4.29296888 175.208496,4.26757812 C175.102701,4.24218737 174.99056,4.22949219 174.87207,4.22949219 C174.698567,4.22949219 174.520834,4.25488256 174.338867,4.30566406 C174.1569,4.35644557 173.991863,4.42309529 173.84375,4.50561523 C173.695637,4.58813518 173.575033,4.67911734 173.481934,4.77856445 C173.388834,4.87801156 173.342285,4.97639925 173.342285,5.07373047 C173.342285,5.17106168 173.401529,5.21972656 173.52002,5.21972656 C173.59196,5.21972656 173.708333,5.21126311 173.869141,5.19433594 C174.029949,5.17740877 174.207681,5.15730806 174.402344,5.1340332 C174.597006,5.11075835 174.793782,5.08431004 174.992676,5.0546875 C175.19157,5.02506496 175.365071,4.99755872 175.513184,4.97216797 Z M178.82666,0.668457031 C178.82666,0.444172056 178.890136,0.286540168 179.01709,0.195556641 C179.144044,0.104573113 179.353514,0.0590820312 179.645508,0.0590820312 C179.751303,0.0590820312 179.841227,0.0686034204 179.915283,0.0876464844 C179.98934,0.106689548 180.052815,0.141601309 180.105713,0.192382812 C180.15861,0.243164316 180.200928,0.309814041 180.232666,0.392333984 C180.264404,0.474853928 180.290853,0.579589209 180.312012,0.706542969 C180.362793,1.10009962 180.418864,1.50634556 180.480225,1.92529297 C180.541586,2.34424038 180.606119,2.76529736 180.673828,3.18847656 C180.699219,3.3789072 180.798664,3.47412109 180.972168,3.47412109 C181.018718,3.47412109 181.095947,3.46883143 181.203857,3.45825195 C181.311768,3.44767247 181.439778,3.43497729 181.587891,3.42016602 C181.736003,3.40535474 181.895751,3.38948576 182.067139,3.37255859 C182.238526,3.35563143 182.409911,3.33976244 182.581299,3.32495117 C182.752686,3.3101399 182.915608,3.29744471 183.070068,3.28686523 C183.224529,3.27628575 183.361002,3.27099609 183.479492,3.27099609 C183.572592,3.27099609 183.646647,3.28898094 183.70166,3.32495117 C183.756673,3.3609214 183.800049,3.40747042 183.831787,3.46459961 C183.863526,3.5217288 183.884684,3.58520473 183.895264,3.6550293 C183.905843,3.72485386 183.911133,3.79573532 183.911133,3.86767578 C183.911133,3.93115266 183.899496,3.99674445 183.876221,4.06445312 C183.852946,4.1321618 183.821208,4.19246393 183.781006,4.24536133 C183.740804,4.29825873 183.691081,4.34163395 183.631836,4.37548828 C183.572591,4.40934262 183.504883,4.42626953 183.428711,4.42626953 C183.060545,4.42626953 182.689211,4.43790678 182.314697,4.46118164 C181.940184,4.4844565 181.566734,4.51513653 181.194336,4.55322266 C181.003905,4.57861341 180.908691,4.6738273 180.908691,4.83886719 C180.908691,4.85156256 180.910807,4.86743155 180.915039,4.88647461 C180.919271,4.90551767 180.921387,4.92138666 180.921387,4.93408203 C180.972168,5.30224793 181.019775,5.64713381 181.064209,5.96875 C181.108643,6.29036619 181.146728,6.5770658 181.178467,6.82885742 C181.210205,7.08064905 181.235596,7.29011961 181.254639,7.45727539 C181.273682,7.62443117 181.283203,7.73551405 181.283203,7.79052734 C181.283203,7.94287186 181.268392,8.07088164 181.23877,8.17456055 C181.209147,8.27823945 181.160482,8.36287402 181.092773,8.4284668 C181.025065,8.49405957 180.935141,8.54060859 180.822998,8.56811523 C180.710856,8.59562188 180.570151,8.609375 180.400879,8.609375 C180.240071,8.609375 180.121582,8.57128944 180.04541,8.49511719 C179.969238,8.41894493 179.926921,8.3025724 179.918457,8.14599609 C179.893066,7.64664464 179.852865,7.14412688 179.797852,6.63842773 C179.742838,6.13272859 179.679362,5.62809497 179.607422,5.12451172 C179.569336,4.94254466 179.474122,4.8515625 179.321777,4.8515625 C179.309082,4.8515625 179.294271,4.85367836 179.277344,4.85791016 C179.260417,4.86214195 179.245606,4.86425781 179.23291,4.86425781 C178.970539,4.9235029 178.722983,4.9827471 178.490234,5.04199219 C178.257486,5.10123728 178.039552,5.1647132 177.836426,5.23242188 C177.722167,5.270508 177.620606,5.29695631 177.531738,5.31176758 C177.442871,5.32657885 177.362468,5.33398438 177.290527,5.33398438 C177.193196,5.33398438 177.121257,5.29060916 177.074707,5.20385742 C177.028157,5.11710569 177.004883,5.00813868 177.004883,4.87695312 C177.004883,4.83040341 177.009115,4.77644887 177.017578,4.71508789 C177.026042,4.65372691 177.041911,4.59236684 177.065186,4.53100586 C177.08846,4.46964488 177.122314,4.41251654 177.166748,4.35961914 C177.211182,4.30672174 177.271484,4.26334652 177.347656,4.22949219 C177.525392,4.15755172 177.762368,4.08243854 178.058594,4.00415039 C178.354819,3.92586224 178.689126,3.85286492 179.061523,3.78515625 C179.146159,3.76399729 179.212809,3.72908553 179.261475,3.68041992 C179.31014,3.63175431 179.334473,3.558757 179.334473,3.46142578 L179.334473,3.39477539 C179.334473,3.37150053 179.330241,3.3471681 179.321777,3.32177734 C179.254069,2.93245248 179.189535,2.57804522 179.128174,2.25854492 C179.066813,1.93904463 179.013916,1.66504021 178.969482,1.43652344 C178.925049,1.20800667 178.890137,1.02815821 178.864746,0.896972656 C178.839355,0.765787104 178.82666,0.689615991 178.82666,0.668457031 Z M185.783691,2.76318359 C186.003745,2.76318359 186.217447,2.79492156 186.424805,2.85839844 C186.632162,2.92187532 186.815185,3.00756782 186.973877,3.11547852 C187.132569,3.22338921 187.260579,3.34610934 187.35791,3.48364258 C187.455241,3.62117582 187.503906,3.76188079 187.503906,3.90576172 C187.503906,3.99886114 187.484863,4.08878537 187.446777,4.17553711 C187.408691,4.26228885 187.35791,4.33845996 187.294434,4.40405273 C187.230957,4.46964551 187.159017,4.52254212 187.078613,4.56274414 C186.998209,4.60294616 186.913575,4.62304688 186.824707,4.62304688 C186.727376,4.62304688 186.63851,4.58601925 186.558105,4.51196289 C186.477701,4.43790653 186.392009,4.35538782 186.301025,4.2644043 C186.210042,4.17342077 186.10848,4.09090206 185.996338,4.0168457 C185.884195,3.94278934 185.749838,3.90576172 185.593262,3.90576172 C185.440917,3.90576172 185.303386,3.94173141 185.180664,4.01367188 C185.057942,4.08561234 184.955323,4.18611589 184.872803,4.31518555 C184.790283,4.4442552 184.726807,4.59659743 184.682373,4.7722168 C184.637939,4.94783616 184.615723,5.13932188 184.615723,5.34667969 C184.615723,5.93913057 184.727863,6.39086759 184.952148,6.7019043 C185.176433,7.01294101 185.498045,7.16845703 185.916992,7.16845703 C186.115886,7.16845703 186.286213,7.13671907 186.427979,7.07324219 C186.569744,7.00976531 186.69458,6.93994179 186.80249,6.86376953 C186.910401,6.78759728 187.008789,6.71777375 187.097656,6.65429688 C187.186524,6.59082 187.277506,6.55908203 187.370605,6.55908203 C187.421387,6.55908203 187.472168,6.57495101 187.522949,6.60668945 C187.573731,6.63842789 187.619222,6.67862931 187.659424,6.72729492 C187.699626,6.77596053 187.73348,6.82991507 187.760986,6.88916016 C187.788493,6.94840524 187.802246,7.00764944 187.802246,7.06689453 C187.802246,7.20654367 187.733481,7.35042244 187.595947,7.49853516 C187.458414,7.64664788 187.281739,7.78100526 187.065918,7.90161133 C186.850097,8.0222174 186.609946,8.12060509 186.345459,8.19677734 C186.080972,8.2729496 185.823894,8.31103516 185.574219,8.31103516 C185.239907,8.31103516 184.933107,8.2465013 184.653809,8.11743164 C184.37451,7.98836198 184.133302,7.80851352 183.930176,7.57788086 C183.72705,7.3472482 183.569418,7.07112791 183.457275,6.74951172 C183.345133,6.42789553 183.289062,6.07243033 183.289062,5.68310547 C183.289062,5.25992627 183.35148,4.87060725 183.476318,4.51513672 C183.601156,4.15966619 183.774657,3.85180794 183.996826,3.59155273 C184.218995,3.33129753 184.48242,3.12817456 184.787109,2.98217773 C185.091798,2.83618091 185.423989,2.76318359 185.783691,2.76318359 Z M189.566895,7.88574219 C189.444173,7.88574219 189.328858,7.86669941 189.220947,7.82861328 C189.113037,7.79052715 189.018881,7.73868848 188.938477,7.6730957 C188.858073,7.60750293 188.795655,7.53027388 188.751221,7.44140625 C188.706787,7.35253862 188.68457,7.25732473 188.68457,7.15576172 C188.68457,6.97802646 188.755452,6.83414769 188.897217,6.72412109 C189.038982,6.6140945 189.226236,6.55908203 189.458984,6.55908203 C189.569011,6.55908203 189.675862,6.57918274 189.779541,6.61938477 C189.88322,6.65958679 189.974202,6.71354133 190.05249,6.78125 C190.130778,6.84895867 190.193196,6.92724565 190.239746,7.01611328 C190.286296,7.10498091 190.30957,7.19807894 190.30957,7.29541016 C190.30957,7.481609 190.242921,7.62654571 190.109619,7.73022461 C189.976318,7.83390351 189.795411,7.88574219 189.566895,7.88574219 Z M192.169434,7.88574219 C192.046712,7.88574219 191.931397,7.86669941 191.823486,7.82861328 C191.715576,7.79052715 191.62142,7.73868848 191.541016,7.6730957 C191.460612,7.60750293 191.398194,7.53027388 191.35376,7.44140625 C191.309326,7.35253862 191.287109,7.25732473 191.287109,7.15576172 C191.287109,6.97802646 191.357991,6.83414769 191.499756,6.72412109 C191.641521,6.6140945 191.828775,6.55908203 192.061523,6.55908203 C192.17155,6.55908203 192.278401,6.57918274 192.38208,6.61938477 C192.485759,6.65958679 192.576741,6.71354133 192.655029,6.78125 C192.733317,6.84895867 192.795735,6.92724565 192.842285,7.01611328 C192.888835,7.10498091 192.912109,7.19807894 192.912109,7.29541016 C192.912109,7.481609 192.84546,7.62654571 192.712158,7.73022461 C192.578857,7.83390351 192.39795,7.88574219 192.169434,7.88574219 Z M194.765625,7.88574219 C194.642903,7.88574219 194.527588,7.86669941 194.419678,7.82861328 C194.311767,7.79052715 194.217611,7.73868848 194.137207,7.6730957 C194.056803,7.60750293 193.994385,7.53027388 193.949951,7.44140625 C193.905517,7.35253862 193.883301,7.25732473 193.883301,7.15576172 C193.883301,6.97802646 193.954182,6.83414769 194.095947,6.72412109 C194.237712,6.6140945 194.424966,6.55908203 194.657715,6.55908203 C194.767741,6.55908203 194.874593,6.57918274 194.978271,6.61938477 C195.08195,6.65958679 195.172933,6.71354133 195.251221,6.78125 C195.329509,6.84895867 195.391927,6.92724565 195.438477,7.01611328 C195.485026,7.10498091 195.508301,7.19807894 195.508301,7.29541016 C195.508301,7.481609 195.441651,7.62654571 195.30835,7.73022461 C195.175048,7.83390351 194.994142,7.88574219 194.765625,7.88574219 Z" id="etc" fill="#443D3D"></path>
            </g>
        </g>
    </g>
</svg>